<?xml version="1.0" encoding="utf-8"?>
<!DOCTYPE svg PUBLIC "-//W3C//DTD SVG 20010904//EN" "http://www.w3.org/TR/2001/REC-SVG-20010904/DTD/svg10.dtd">
<svg version="1.0" xmlns="http://www.w3.org/2000/svg" width="200px" height="200px" viewBox="0 0 200 200" preserveAspectRatio="xMidYMid meet">
 <g fill="#be0000">
  <path d="M89.3 191.5 c-15.3 -4.6 -32.2 -14.4 -41.4 -24.2 -9.4 -9.9 -16.3 -22.4 -20.1 -35.8 -2.1 -7.7 -2.2 -9.9 -2.5 -62.1 -0.4 -54.2 -0.4 -54.2 5.9 -55.3 26.1 -4.6 37.1 -5.5 68.3 -5.6 31.2 0 44 1.1 69.3 5.6 6.2 1.1 6.2 1.1 6.2 51.9 0 41.4 -0.3 52.3 -1.5 58.9 -5.2 27.1 -20.7 47.3 -46 59.6 -10.4 5.1 -23.6 9.6 -28 9.4 -1.1 0 -5.7 -1.1 -10.2 -2.4z m21.5 -5.1 c15.7 -5.4 27.4 -12.7 37.8 -23.5 15.8 -16.6 22.4 -35.3 22.4 -63.1 0 -12.9 0 -12.9 -2.6 -10.9 -1.8 1.4 -4.1 2.1 -7 2.1 -4.3 0 -4.4 -0.1 -4.5 -3.2 -0.2 -3.3 -0.2 -3.3 -0.8 0.2 -0.5 3.2 -0.9 3.5 -4.3 3.8 -3.5 0.3 -3.7 0.5 -4 4 -0.3 3.2 -0.7 3.7 -3 4 -2.1 0.3 -2.7 0.9 -3 3 -0.2 1.9 -1 2.8 -2.5 3 -1.4 0.2 -2.3 1.1 -2.5 2.5 -0.2 1.7 -1.1 2.3 -4 2.5 -3.6 0.3 -3.7 0.5 -4 4.5 -0.2 3.5 -0.7 4.3 -2.5 4.5 -1.5 0.2 -2.3 1 -2.3 2.2 0 2.5 -5.6 7 -8.6 7 -2 0 -2.4 0.5 -2.4 3.1 0 2.2 -0.5 3.2 -1.9 3.6 -1.1 0.3 -2.1 1.5 -2.3 2.7 -0.2 1.3 -1.6 2.7 -3.5 3.5 -1.9 0.9 -3.3 2.2 -3.3 3.2 0 2.1 -3.6 4.9 -6.2 4.9 -1.2 0 -1.8 0.8 -1.8 2.4 0 2.6 -3.3 5.6 -6.2 5.6 -1.1 0 -1.8 0.9 -2 2.8 -0.3 2.5 -0.6 2.7 -5 2.7 -5.9 0 -7.1 1.2 -7.2 7.2 -0.1 4.5 -0.3 4.8 -3.1 5.3 -2.9 0.5 -2.6 0.8 4.5 4.3 9.5 4.7 20.5 8.6 24.8 8.6 1.9 0.1 6.8 -1.1 11 -2.5z m-50.4 -22.1 c-3.4 -7.5 -4.4 -10.7 -4.2 -13.8 0.3 -3.9 0.4 -4 4.5 -4.3 2.3 -0.2 5.2 0.2 6.3 0.8 2 1.1 2.1 1 1.4 -2.4 -0.3 -2 -0.3 -4.7 0 -6.1 0.5 -2.1 1.2 -2.5 4.1 -2.5 3.2 0 3.4 -0.2 3.7 -3.7 0.3 -3.8 0.3 -3.8 6.1 -3.6 5.3 0.2 5.7 0 5.7 -2.1 0 -1.3 0.9 -3.5 2.1 -5 1.7 -2.1 2.9 -2.6 6.5 -2.6 4.4 0 4.4 0 4.4 -4.4 0 -3.3 0.6 -4.9 2.4 -6.7 1.7 -1.7 2.2 -2.7 1.5 -3.6 -0.6 -0.6 -0.9 -2.9 -0.7 -5 0.3 -3.5 0.6 -3.8 3.6 -4.1 1.8 -0.2 3.9 0.1 4.5 0.6 0.8 0.7 1.8 0.6 3.1 -0.4 1.1 -0.8 3.2 -1.4 4.8 -1.4 3.7 0 3.8 -2.8 0.1 -3.2 -2.5 -0.3 -2.8 -0.7 -2.8 -4.3 0 -4 0 -4 4.8 -4.3 4.5 -0.3 4.7 -0.2 4.8 2.5 0.2 2.8 0.2 2.8 0.6 -0.1 0.3 -1.7 1.2 -3 2.4 -3.3 1 -0.3 1.9 -1 1.9 -1.6 0 -2.6 3.4 -4.7 7.7 -4.7 4.3 0 4.3 0 4.3 -4.5 0 -3.4 0.6 -5 2.3 -6.5 1.2 -1.2 2.9 -2.7 3.8 -3.5 3.4 -3.1 7.1 -1.9 14.2 4.9 6.7 6.4 6.7 6.4 6.7 -16.3 0 -22.7 0 -22.7 -17.7 -4.7 -55.2 56.1 -107.8 110.5 -107.8 111.5 0 1.9 16.7 18.1 18.7 18.1 0.4 0 -1.3 -4.4 -3.8 -9.7z m54.7 -47.4 c1.5 -2.9 -0.1 -4.3 -2.9 -2.3 -1.8 1.3 -2.1 1.9 -1.1 3 1.6 1.9 2.6 1.8 4 -0.7z"/>
  <path d="M120 165.2 c0 -2.5 -3.1 -5.2 -5.8 -5.2 -1.8 0 -2.2 -0.6 -2.2 -3.4 0 -5.2 0.9 -6.6 4.1 -6.6 2.5 0 2.9 -0.4 2.9 -2.8 0 -3.2 1.6 -5.2 4.2 -5.2 1.1 0 1.8 -0.7 1.8 -1.8 0 -2 3.9 -6.2 5.8 -6.2 0.7 0 1.2 -0.6 1.2 -1.4 0 -0.7 0.9 -2.5 2.1 -4 1.5 -1.9 3 -2.6 5.5 -2.6 3.3 0 3.7 0.4 6 5.5 3.1 7.1 3.3 13.5 0.4 13.5 -1.2 0 -2 0.7 -2 1.8 0 2.9 -2.9 6.2 -5.6 6.2 -1.7 0 -2.4 0.6 -2.4 1.9 0 3.1 -1.1 5.1 -2.9 5.1 -0.9 0 -2.3 1.5 -3.2 3.3 -1.3 2.7 -2.2 3.2 -5.7 3.5 -3.6 0.3 -4.2 0 -4.2 -1.6z"/>
 </g>
 <g fill="#ffffff">
  <path d="M91.5 191.1 c-17.4 -5.3 -31.8 -13.6 -42.4 -24.5 -11.2 -11.3 -11.3 -9.9 0.9 -22.4 55.4 -56.7 114.5 -117.5 119.8 -123.2 4.1 -4.5 4.1 -4.5 4.2 45.1 0 55.2 -0.5 61 -6.2 74.8 -9.6 23.1 -27.8 39.5 -54 48.5 -10.4 3.6 -15.1 3.9 -22.3 1.7z m-21.6 -23 c-1.1 -3 -0.9 -3.5 2.1 -6.6 3.1 -3.2 3.3 -3.3 6.5 -1.9 3 1.2 4.5 1 4.5 -0.6 0 -1.2 -21.8 -10.2 -22.9 -9.5 -1.6 1 -1.5 1.5 3.9 13.1 3.3 7 5.4 10.4 6 9.8 0.7 -0.7 0.6 -2.2 -0.1 -4.3z m56.6 -6.8 c1.7 -2.5 1.7 -2.6 0 -1.9 -1.3 0.5 -2.9 -0.4 -5.7 -3.1 -3.2 -3.1 -4 -3.5 -4.8 -2.3 -1.4 2.1 -1.2 3.6 0.2 2.2 0.9 -0.9 1.9 -0.5 4.4 1.9 1.8 1.7 3 3.8 2.7 4.5 -0.9 2.4 1.4 1.5 3.2 -1.3z m6.1 -6.9 c1.3 -4.9 -4.7 -11.1 -8.4 -8.7 -2.2 1.3 -2.7 4 -1.2 5.8 1.6 2 3.9 1.9 6.2 -0.1 1.6 -1.6 1.8 -1.5 2.4 0 0.4 1 -0.1 2.5 -1.1 3.6 -1.6 1.8 -1.6 2 -0.2 2 1 0 1.9 -1.1 2.3 -2.6z m-42.1 -2.5 c1.1 -1.6 -0.1 -2.2 -2.3 -1 -1.5 0.8 -2.7 0.3 -6.3 -2.8 -3.8 -3.4 -4.2 -4.1 -3 -5.5 1.7 -2.1 0.7 -3.3 -1.4 -1.6 -1.3 1.1 -1.9 1 -3.4 -0.4 -1.6 -1.4 -1.9 -1.5 -2.4 -0.2 -0.3 0.8 0.1 2 0.9 2.7 1 0.8 1.1 1.5 0.4 2.4 -0.7 0.9 -0.7 1.5 -0.1 1.9 0.5 0.4 1.3 0.1 1.6 -0.5 0.5 -0.7 1.8 0 3.9 1.9 5.2 4.9 7.7 6.2 9.7 5.1 1 -0.5 2.1 -1.4 2.4 -2z m49.2 -4.6 c1.3 -1.9 1.2 -2.4 -0.6 -4.2 -1.8 -1.8 -2.5 -1.9 -4.2 -1 -1.1 0.6 -2.8 0.8 -3.6 0.5 -1.4 -0.6 -1.4 -0.9 0.2 -2.6 2.6 -2.9 1.3 -3.5 -1.3 -0.7 -2.2 2.3 -2.2 2.3 0.1 4.6 2.1 1.9 2.5 2 3.7 0.6 0.7 -0.8 1.8 -1.5 2.5 -1.5 2.2 0 2.7 3.2 0.8 5.3 -1.3 1.4 -1.4 1.9 -0.4 1.5 0.8 -0.2 2.1 -1.4 2.8 -2.5z m-41.2 -3.3 c1.2 -1.9 -0.6 -3.1 -2.2 -1.4 -1.4 1.4 -1.9 1.2 -5.7 -2.3 -2.2 -2.1 -4.3 -3.9 -4.5 -4 -0.2 -0.2 0.2 -0.9 0.9 -1.8 1.7 -2 0.5 -3.2 -1.5 -1.5 -1.3 1.1 -1.9 1 -3.4 -0.4 -2.5 -2.2 -4 -0.2 -1.7 2.3 1.1 1.2 1.3 2 0.5 2.8 -0.7 0.7 -0.7 1.3 -0.1 1.7 0.6 0.3 1.3 0.2 1.7 -0.4 0.4 -0.6 3 0.9 6.1 3.5 4.5 3.6 5.9 4.3 7.4 3.5 1.1 -0.6 2.2 -1.5 2.5 -2z m44 -9.6 c-2.6 -5.9 -2.6 -5.9 -5.1 -3.1 -3.1 3.6 -3.1 5.7 0 2.8 2.3 -2.2 2.3 -2.2 4.6 3.1 1.3 2.9 2.5 4.8 2.7 4.2 0.2 -0.6 -0.8 -3.8 -2.2 -7z m-37.7 3.3 c0.6 -0.5 1.2 -1.7 1.2 -2.7 0 -1 1 -2.1 2.3 -2.4 2.1 -0.6 1.9 -1 -3.2 -5.7 -4 -3.7 -6 -4.9 -7.9 -4.7 -3.2 0.4 -6.7 5 -5.8 7.5 0.6 1.5 1 1.3 2.1 -1.4 0.9 -2.2 2.1 -3.3 3.4 -3.3 2.9 0 3.2 1.3 1 4.6 -2.5 3.8 -2.4 6.9 0.2 8.8 2.1 1.4 4.2 1.2 6.7 -0.7z m13.4 -14.6 c2.4 -2.2 3 -3.3 2.2 -4.1 -0.8 -0.8 -1.5 -0.4 -2.8 1.4 -2 3.1 -5.4 3.4 -8.6 0.8 -3 -2.4 -3 -7 0 -9.4 1.5 -1.3 2 -2.2 1.3 -2.9 -0.6 -0.6 -1.9 -0.1 -3.6 1.7 -5.7 5.6 -1.7 15 6.5 15.3 1 0.1 3.2 -1.2 5 -2.8z m4.7 -11.4 c-5.1 -4.5 -6.2 -6.9 -4.3 -9.5 2.1 -3.1 3.5 -2.8 8.8 1.9 3.1 2.7 5.1 3.8 5.7 3.2 1.1 -1.1 -9.4 -10.3 -11.7 -10.3 -2.1 0 -5.4 3.7 -5.4 6.2 0 2 -0.4 1.9 -3.9 -1.6 -2.7 -2.7 -4.1 -3.4 -4.6 -2.6 -1.1 1.7 16.6 18.2 18 16.8 0.7 -0.6 -0.2 -2 -2.6 -4.1z m10.6 -16.3 c-6.3 -5.7 -7.5 -6.3 -7.5 -4 0 2.2 11.3 11.7 12.5 10.5 0.7 -0.8 -0.9 -2.8 -5 -6.5z m10.9 0.9 c0.3 -0.4 -1.2 -2.6 -3.5 -4.9 -3.2 -3.2 -4 -4.8 -3.7 -7 0.5 -4.6 3.8 -4.3 9.3 0.7 3 2.8 4.9 3.9 5.6 3.2 1.4 -1.4 -8.3 -10.3 -11.2 -10.3 -2.8 0 -5.9 2.7 -5.9 5.2 0 1.1 -0.4 1.6 -1 1.3 -0.5 -0.3 -1.5 -0.3 -2.1 0.1 -0.7 0.4 1.2 2.9 4.7 6.5 6 6 6.5 6.4 7.8 5.2z m-20.9 -9.4 c1 -1.5 -0.1 -2.3 -2 -1.5 -0.9 0.3 -1.3 1 -1 1.6 0.8 1.3 2.2 1.3 3 -0.1z m41.8 -0.9 c5.9 -4.7 4.1 -10.8 -5.6 -19.2 -4.6 -4 -5.6 -4.4 -6.8 -3.3 -0.8 0.8 -2.4 2.3 -3.6 3.5 -6.7 6 2.7 18.5 10.2 13.6 1.4 -0.9 2.8 -2.8 3.1 -4.1 0.6 -2.4 0.7 -2.4 2 -0.8 2.2 2.9 1.6 5.9 -1.6 8.6 -1.6 1.4 -3 2.8 -3 3.1 0 1.3 2.9 0.5 5.3 -1.4z"/>
  <path d="M65 158 c-1.2 -2.3 -2 -4.4 -1.7 -4.6 0.5 -0.6 8.7 2.8 8.7 3.6 0 0.3 -1.1 1.7 -2.4 2.9 -2.5 2.3 -2.5 2.3 -4.6 -1.9z"/>
  <path d="M125.3 151.3 c-1.5 -0.5 -1.7 -3.9 -0.4 -4.7 0.4 -0.3 1.7 0.1 2.7 0.9 1.7 1.2 1.7 1.5 0.4 2.8 -0.8 0.8 -2.1 1.3 -2.7 1z"/>
  <path d="M99.1 135.3 c-0.7 -1.3 -0.5 -2.6 0.7 -4.5 2 -3.4 2.5 -3.5 4.1 -0.4 1.5 2.6 1 4.1 -1.9 5.6 -1.5 0.8 -2.1 0.6 -2.9 -0.7z"/>
  <path d="M152.9 77.7 c-0.9 -0.7 -2.1 -2.2 -2.8 -3.5 -1 -1.9 -1 -2.8 0.4 -4.8 2 -3.1 3.6 -3 7.4 0.2 3.4 2.8 3.9 5.4 1.5 7.8 -1.8 1.9 -4.3 2 -6.5 0.3z"/>
  <path d="M55.5 86.5 c-18 -17.3 -18 -17.3 -12 -23.5 3.3 -3.4 7.2 -6.8 8.7 -7.6 3.3 -1.7 7.8 -1.8 11.2 -0.2 3.3 1.5 6.7 8.4 5.9 12.2 -0.5 2.6 -0.4 2.8 1.8 2 1.3 -0.5 4.1 -0.9 6.2 -0.8 5.4 0 10.7 5.4 11.4 11.6 0.7 5.9 -1.8 10.6 -9.4 18 -5.8 5.7 -5.8 5.7 -23.8 -11.7z m27.5 -3.8 c0 -2.4 -0.8 -4.2 -2.6 -6.1 -4.3 -4.3 -8.8 -3.4 -15.7 3.2 -3.7 3.6 -3.7 3.6 2.5 10 6.3 6.3 6.3 6.3 11.1 1.3 3.7 -3.9 4.7 -5.7 4.7 -8.4z m-22.2 -7 c4.5 -4.7 5.1 -8.5 1.7 -12.5 -3.7 -4.4 -6.5 -4.1 -12.1 1 -4.5 4.1 -4.5 4.1 0.8 9.5 2.9 2.9 5.5 5.3 5.8 5.3 0.3 0 2 -1.5 3.8 -3.3z"/>
  <path d="M91.4 66.1 c-13.2 -6 -20.1 -20.3 -16.2 -33.3 1.3 -4.6 7.3 -11.7 12.4 -14.8 3.4 -2.1 3.6 -2.1 5.4 -0.5 2.7 2.4 2.5 3 -0.9 4.5 -3.6 1.4 -8.8 6.4 -10.8 10.4 -0.8 1.6 -1.5 5 -1.5 7.6 0 13.2 15.3 25.3 26.6 21 3.9 -1.5 10.1 -7.5 12.1 -11.9 1.5 -3.5 2 -3.8 3.6 -2.8 1.1 0.7 1.9 2 1.9 3 0 4.5 -9.1 14.6 -15.6 17.3 -4.6 1.9 -12.1 1.7 -17 -0.5z"/>
 </g>
</svg>